<?xml version="1.0" ?><!DOCTYPE svg  PUBLIC '-//W3C//DTD SVG 1.1//EN'  'http://www.w3.org/Graphics/SVG/1.1/DTD/svg11.dtd'><svg enable-background="new 0 0 24 24" height="24px" id="Layer_1" version="1.1" viewBox="0 0 24 24" width="24px" xml:space="preserve" xmlns="http://www.w3.org/2000/svg" xmlns:xlink="http://www.w3.org/1999/xlink"><g><path d="M6,12.9V6h7c0.6,0,1-0.6,1-1.1v-4C14,0.3,13.5,0,13,0H1C0.4,0,0,0.3,0,0.9v12C0,13.4,0.4,14,1,14h4C5.5,14,6,13.4,6,12.9z    M2,12V2h10v2H4v8H2z"/><path d="M24,23.1v-12c0-0.6-0.4-1.1-1-1.1h-4c-0.6,0-1,0.6-1,1.1V18h-7c-0.6,0-1,0.6-1,1.1v4c0,0.6,0.5,0.9,1,0.9h12   C23.6,24,24,23.7,24,23.1z M12,22v-2h8v-8h2v10H12z"/></g></svg>